<?xml version="1.0" encoding="UTF-8"?>
<svg id="Layer_1" xmlns="http://www.w3.org/2000/svg" version="1.1" viewBox="0 0 1153 496.2">
  <!-- Generator: Adobe Illustrator 29.8.2, SVG Export Plug-In . SVG Version: 2.1.1 Build 3)  -->
  <defs>
    <style>
      .st0 {
        stroke: #2c1285;
      }

      .st0, .st1, .st2 {
        fill: none;
        stroke-width: 2px;
      }

      .st1 {
        stroke: #9980f2;
      }

      .st3 {
        fill: #1c1c1c;
      }

      .st4 {
        fill: #3b08ed;
      }

      .st2 {
        stroke: #8a8a8a;
      }

      .st5 {
        fill: #f7f7f7;
      }
    </style>
  </defs>
  <g>
    <path class="st1" d="M235.7-631.9c27.5-8.7,51.6-22.9,72.3-42.7.1-.1.3-.1.4,0,0,0,0,.1,0,.2v122.5c0,.4.3.7.7.7h74.2c.3,0,.5-.2.5-.5v-76c0-.6.4-1,.9-1.2,31.5-8.1,59-23.3,82.4-45.5.1-.1.3-.1.4,0,0,0,0,.1,0,.2v122.6c0,.2.2.4.4.4h74.5c.3,0,.6-.3.6-.6v-113.2" vector-effect="non-scaling-stroke"/>
    <path class="st2" d="M543.1-665c.2,4.8.4,9.7.6,14.5,0,1.1.1,2.2.2,3.3,1.4,16.7,6.2,32.3,14.2,46.9,14.3,25.8,37.8,43.2,66.2,50.4,20.9,5.3,42.3,5.6,63.9.9,31.6-6.9,57.5-27.4,71.2-56.8,3.6-7.7,6.5-16.2,8.7-25.6,0-.3-.1-.6-.4-.6,0,0,0,0-.1,0h-73.5c-.6,0-1.1.4-1.3.9-5.2,14.8-16.8,24.2-32.3,25.1-5.8.3-10.6,0-14.4-1.1-14.4-4-24.1-15.7-28.1-29.8-2-7.2-3.2-13.6-3.4-19.1-.3-7.3-.3-12.8,0-16.2,1-11.7,3.7-23.9,10.7-33.7,7.1-9.7,16.5-14.9,28.2-15.7,11.7-.8,23,2.3,30.9,11,3.9,4.3,6.7,9,8.3,14.2.2.5.7.9,1.2.9h73.6c.3,0,.5-.2.5-.5,0,0,0,0,0-.1-1.7-7-3.8-13.6-6.2-19.7-10.4-26.1-30.1-46.3-55.8-57-11-4.6-23.2-7.4-36.5-8.4-12.6-1-25.1-.4-37.5,1.9-31.9,5.9-58.8,24.3-74.5,52.8-7.6,13.9-12.2,29.2-13.8,46.1,0,.2-.1,1-.4,2.5-.6,3.4-.2,7.2-.4,10.7" vector-effect="non-scaling-stroke"/>
    <path class="st1" d="M543.2-667.3v-107.4c.1-.3-.1-.6-.5-.6h-52c-.4,0-.9.2-1.1.6-25.7,35.1-59.2,59.4-100.6,72.9-.3,0-1.7.5-4.3,1.2-.3,0-.6,0-.7-.4,0,0,0,0,0-.2v-73.7c0-.3-.2-.5-.5-.5h-51.9c-.5,0-1,.2-1.3.6-24.4,33.3-57.7,58.1-97,71.6" vector-effect="non-scaling-stroke"/>
    <path class="st2" d="M233.3-703c-.3-.2-.5-.6-.7-1.3-19.7-61.6-83.2-87-143-74.4-13.5,2.9-26.1,7.9-37.7,15.1-26.4,16.3-43.8,43.2-49.5,73.8-.8,4.3-2,11.2-2,16.1s-.1,4.4-.3,6.8c-.4,4.3.3,9.2.4,13.6,0,5,1.1,10,2,15.7,1.8,11.6,5.8,23,11.9,34.2,18.1,33.2,50.6,52.6,88,56.7,43.2,4.8,87.9-9.3,114.2-45.4,8.8-12.1,15-25.4,18.4-39.7,0-.3.3-.3.8-.2" vector-effect="non-scaling-stroke"/>
    <path class="st0" d="M233.3-703c.5,2.7,1,5.4,1.7,8.2.9,3.6,1.5,6.3,1.8,8.1,2.8,17.7,2.4,35.4-1.2,53-.1.5,0,1.1.1,1.8" vector-effect="non-scaling-stroke"/>
    <path class="st0" d="M543.1-665v-2.2" vector-effect="non-scaling-stroke"/>
    <path class="st2" d="M838.4-646.6c0-.2.1-.4.4-.4,0,0,0,0,0,0h157.7c.3,0,.6-.2.7-.5,1.4-5.3.8-10.3,1.3-15.4.5-6.1-.3-10-.3-15.7,0-1.6-.2-4-.7-7.4-2.4-18.1-8-34.5-18.1-49.5-15.1-22.4-38.3-37.1-64.6-43.1-17.4-3.9-35.4-4.4-53.8-1.4-28.5,4.6-54.5,19.1-71.1,42.6-7.7,10.9-13.2,22.5-16.6,34.9-5.8,21.4-6.6,43.6-2.5,66.7,2.1,11.6,6.1,22.9,11.9,33.8,17.2,32.2,49.2,51.5,85.4,55.3,16.1,1.7,31.2,1,45.4-2.3,38.8-8.8,69.4-36.9,79.6-75.7,0-.2,0-.5-.3-.5,0,0,0,0-.1,0h-73.2c-.7,0-1.4.4-1.7,1.1-2.9,6.3-7.1,11.2-12.4,14.8-9.9,6.6-23.9,7.7-35.3,5-19.7-4.8-30.8-22.5-31.7-42.2" vector-effect="non-scaling-stroke"/>
    <path class="st1" d="M389.1-371.5c27.8-8.6,52.2-22.8,73-42.7.1-.1.4-.1.5,0,0,0,.1.2.1.3v122.3c0,.3.2.5.5.5h74.4c.4,0,.7-.3.7-.7h0v-75.8c0-.6.4-1.1.9-1.2,31.4-8,58.8-23.2,82.4-45.6.1-.1.3-.1.5,0,0,0,0,.1,0,.2v122.5c0,.3.2.5.5.5h73.9c.5,0,.9-.4.9-.9,0,0,0,0,0,0l-.2-104.2" vector-effect="non-scaling-stroke"/>
    <path class="st2" d="M697.4-396.3c.4,7.8,1.5,16,3.4,24.5,9,41.8,39.1,73.3,81,82.6,21.8,4.8,43.2,4.6,64.3-.6,26.8-6.7,49.8-23.9,63.5-47.8,5.9-10.3,10.2-21.5,12.8-33.7,0-.3-.1-.5-.4-.6,0,0,0,0-.1,0h-73.3c-.6,0-1.2.4-1.4,1-4.2,11.9-13.9,22-26.8,24.2-17.6,3-31.2-2-40.7-15.1-5.3-7.2-8.6-17.2-9.7-25.8-3.6-27.2.5-68.9,35.4-73.8,19.3-2.7,35.6,6.4,42,25,.2.6.7,1,1.3,1h73.2c.3,0,.5-.2.5-.5,0,0,0,0,0,0-2.5-12.1-6.8-23.3-12.7-33.6-14.3-25.2-39-42.9-67.2-48.9-20.3-4.4-40.5-4.4-60.4,0-40.8,9-70.9,38.9-80.8,79.5-2.2,9-3.6,18-4.1,27.2" vector-effect="non-scaling-stroke"/>
    <path class="st1" d="M697.4-411.8l.2-102.7c0-.4-.3-.7-.7-.7,0,0,0,0,0,0h-51.3c-.7,0-1.3.3-1.7.9-25.9,35.5-62.3,61.4-104.6,74-.3,0-.7,0-.8-.4,0,0,0-.1,0-.2v-73.7c0-.3-.3-.6-.6-.6h-52.1c-.4,0-.8.2-1,.5-24.9,34-57.3,58-97.2,72" vector-effect="non-scaling-stroke"/>
    <path class="st2" d="M387.5-442.8c-1.7-4.9-2.8-7.9-3.3-9.1-16-40.1-51.9-64.2-94.3-68.9-9.3-1-18.9-1.1-28.8-.3-47.7,4-86.4,32.2-101.2,78.5-1.4,4.4-2.8,10.9-4.2,19.4-.9,5.6-.7,10.2-1.2,15.4-.5,5.4.3,13.5.5,17.4.5,8.2,2.2,16.9,5,26.2,4.2,13.9,10.9,26.5,20.1,37.7,26.7,32.7,68.8,44.3,109.7,39.9,21.2-2.3,41.7-9.8,58.7-22.6,20.6-15.5,34.1-36.2,40.6-62.3" vector-effect="non-scaling-stroke"/>
    <path class="st0" d="M387.5-442.8c2.4,9.6,4.4,18.1,4.8,26.6.2,5.5.8,10.5.5,16.3-.2,3.9-.4,7.8-.6,11.6-.1,2.7-1.1,8.2-3,16.7" vector-effect="non-scaling-stroke"/>
    <path class="st0" d="M697.4-396.3v-15.5" vector-effect="non-scaling-stroke"/>
    <path class="st2" d="M992.7-386.5c0-.2.1-.4.4-.4,0,0,0,0,0,0h157.7c.3,0,.6-.2.7-.5,1.4-5.3.8-10.3,1.3-15.4.5-6.1-.3-10-.3-15.7,0-1.6-.2-4-.7-7.4-2.4-18.1-8-34.5-18.1-49.5-15.1-22.4-38.3-37.1-64.6-43.1-17.4-3.9-35.4-4.4-53.8-1.5-28.5,4.6-54.5,19-71.1,42.6-7.7,10.9-13.2,22.5-16.6,34.9-5.8,21.4-6.6,43.6-2.5,66.7,2.1,11.6,6.1,22.8,11.9,33.8,17.2,32.2,49.2,51.5,85.4,55.4,16.1,1.7,31.2,1,45.5-2.3,38.8-8.8,69.4-36.9,79.6-75.7,0-.2,0-.5-.3-.5,0,0,0,0-.1,0h-73.2c-.7,0-1.4.4-1.7,1.1-2.9,6.3-7.1,11.2-12.4,14.8-9.9,6.6-23.9,7.7-35.3,4.9-19.7-4.8-30.8-22.5-31.7-42.2" vector-effect="non-scaling-stroke"/>
    <path class="st2" d="M71.7-664.1c0,8,.2,13.3,2,20.8,3.6,15.1,13.5,27.9,28,33.5,4.3,1.7,8.2,2.6,11.9,2.9,14,1.1,25.9-2.6,35.6-11,12.6-10.9,17.9-28,17.3-44.5,0-.4,0-.7,0-1.1s0-.7,0-1.1c.8-16.4-4.3-33.6-16.7-44.7-9.6-8.6-21.4-12.4-35.5-11.5-3.7.3-7.7,1.2-11.9,2.8-14.6,5.5-24.6,18-28.5,33.1-1.9,7.5-2.2,12.8-2.3,20.8" vector-effect="non-scaling-stroke"/>
    <path class="st2" d="M926.8-686.5c-.8-10.2-3.3-19.2-10.8-26.5-7.3-7.1-16-11-25.9-12-6.5-.6-11.8-.5-15.8.3-17.2,3.4-28.4,13.5-33.7,30.1-.9,2.9-1.6,5.6-2,7.9,0,.4.2.7.5.8,0,0,0,0,.1,0h87.1c.3,0,.5-.3.5-.6,0,0,0,0,0,0" vector-effect="non-scaling-stroke"/>
    <path class="st2" d="M226.1-404c0,8,.2,13.3,2,20.8,3.6,15.1,13.5,27.9,28,33.5,4.3,1.7,8.2,2.7,11.9,3,14,1.1,25.9-2.6,35.6-11,12.6-10.9,17.9-28,17.3-44.5,0-.4,0-.7,0-1.1,0-.4,0-.7,0-1.1.8-16.4-4.3-33.6-16.7-44.7-9.6-8.6-21.4-12.4-35.5-11.5-3.7.2-7.7,1.2-11.9,2.8-14.6,5.4-24.6,18-28.5,33.1-1.9,7.5-2.2,12.8-2.3,20.8" vector-effect="non-scaling-stroke"/>
    <path class="st2" d="M1081.2-426.4c-.8-10.1-3.3-19.2-10.8-26.5-7.3-7.1-16-11-25.9-12-6.5-.6-11.8-.5-15.8.3-17.1,3.4-28.4,13.4-33.7,30-.9,2.9-1.6,5.6-2,7.9,0,.4.2.7.5.8,0,0,0,0,.1,0h87.1c.3,0,.5-.2.5-.5,0,0,0,0,0,0" vector-effect="non-scaling-stroke"/>
  </g>
  <path class="st5" d="M1202.4-668.7c0-.2.1-.4.4-.4,0,0,0,0,0,0h157.7c.3,0,.6-.2.7-.5,1.4-5.3.8-10.3,1.3-15.4.5-6.1-.3-10-.3-15.7,0-1.6-.2-4-.7-7.4-2.4-18.1-8-34.5-18.1-49.5-15.1-22.4-38.3-37.1-64.6-43.1-17.4-3.9-35.4-4.4-53.8-1.4-28.5,4.6-54.5,19.1-71.1,42.6-7.7,10.9-13.2,22.5-16.6,34.9-5.8,21.4-6.6,43.6-2.5,66.7,2.1,11.6,6.1,22.9,11.9,33.8,17.2,32.2,49.2,51.5,85.4,55.3,16.1,1.7,31.2,1,45.4-2.3,38.8-8.8,69.4-36.9,79.6-75.7,0-.2,0-.5-.3-.5,0,0,0,0-.1,0h-73.2c-.7,0-1.4.4-1.7,1.1-2.9,6.3-7.1,11.2-12.4,14.8-9.9,6.6-23.9,7.7-35.3,5-19.7-4.8-30.8-22.5-31.7-42.2Z"/>
  <path class="st5" d="M1543.4-453.7c0-.2.1-.4.4-.4,0,0,0,0,0,0h157.7c.3,0,.6-.2.7-.5,1.4-5.3.8-10.3,1.3-15.4.5-6.1-.3-10-.3-15.7,0-1.6-.2-4-.7-7.4-2.4-18.1-8-34.5-18.1-49.5-15.1-22.4-38.3-37.1-64.6-43.1-17.4-3.9-35.4-4.4-53.8-1.5-28.5,4.6-54.5,19-71.1,42.6-7.7,10.9-13.2,22.5-16.6,34.9-5.8,21.4-6.6,43.6-2.5,66.7,2.1,11.6,6.1,22.8,11.9,33.8,17.2,32.2,49.2,51.5,85.4,55.4,16.1,1.7,31.2,1,45.5-2.3,38.8-8.8,69.4-36.9,79.6-75.7,0-.2,0-.5-.3-.5,0,0,0,0-.1,0h-73.2c-.7,0-1.4.4-1.7,1.1-2.9,6.3-7.1,11.2-12.4,14.8-9.9,6.6-23.9,7.7-35.3,4.9-19.7-4.8-30.8-22.5-31.7-42.2Z"/>
  <path class="st3" d="M233.3-703c.5,2.7,1,5.4,1.7,8.2.9,3.6,1.5,6.3,1.8,8.1,2.8,17.7,2.4,35.4-1.2,53-.1.5,0,1.1.1,1.8-.5-.1-.7,0-.8.2-3.4,14.4-9.6,27.6-18.4,39.7-26.3,36.1-71,50.2-114.2,45.4-37.4-4.2-69.8-23.5-88-56.7-6.1-11.2-10.1-22.6-11.9-34.2-.9-5.7-2-10.7-2-15.7,0-4.5-.8-9.3-.4-13.6.2-2.4.3-4.7.3-6.8,0-4.9,1.2-11.8,2-16.1,5.7-30.6,23.1-57.4,49.5-73.8,11.6-7.2,24.2-12.2,37.7-15.1,59.8-12.6,123.3,12.7,143,74.4.2.7.5,1.1.7,1.3ZM71.7-664.1c0,8,.2,13.3,2,20.8,3.6,15.1,13.5,27.9,28,33.5,4.3,1.7,8.2,2.6,11.9,2.9,14,1.1,25.9-2.6,35.6-11,12.6-10.9,17.9-28,17.3-44.5,0-.4,0-.7,0-1.1s0-.7,0-1.1c.8-16.4-4.3-33.6-16.7-44.7-9.6-8.6-21.4-12.4-35.5-11.5-3.7.3-7.7,1.2-11.9,2.8-14.6,5.5-24.6,18-28.5,33.1-1.9,7.5-2.2,12.8-2.3,20.8Z"/>
  <path class="st3" d="M543.1-665v-2.2c.3-3.5,0-7.3.5-10.7.3-1.5.4-2.4.4-2.5,1.6-16.9,6.2-32.3,13.8-46.1,15.7-28.5,42.6-46.9,74.5-52.8,12.4-2.3,24.9-2.9,37.5-1.9,13.4,1.1,25.5,3.9,36.5,8.4,25.7,10.7,45.4,30.9,55.8,57,2.4,6.1,4.5,12.7,6.2,19.7,0,.3-.1.5-.4.6,0,0,0,0-.1,0h-73.6c-.6,0-1-.4-1.2-.9-1.6-5.2-4.4-9.9-8.3-14.2-7.9-8.7-19.2-11.7-30.9-11-11.8.8-21.2,6-28.2,15.7-7.1,9.7-9.8,22-10.7,33.7-.3,3.5-.3,8.9,0,16.2.2,5.5,1.3,11.9,3.4,19.1,4,14.1,13.7,25.8,28.1,29.8,3.8,1.1,8.6,1.4,14.4,1.1,15.5-.8,27.1-10.3,32.3-25.1.2-.6.7-.9,1.3-.9h73.5c.3,0,.5.2.5.5,0,0,0,0,0,.1-2.2,9.4-5.2,17.9-8.7,25.6-13.7,29.4-39.6,49.9-71.2,56.8-21.7,4.7-43,4.4-63.9-.9-28.3-7.2-51.9-24.6-66.2-50.4-8.1-14.6-12.8-30.2-14.2-46.9,0-1.1-.2-2.2-.2-3.3-.2-4.8-.4-9.7-.6-14.5Z"/>
  <path class="st3" d="M838.4-646.6c.8,19.7,11.9,37.4,31.7,42.2,11.5,2.8,25.5,1.7,35.3-5,5.3-3.6,9.5-8.5,12.4-14.8.3-.7,1-1.1,1.7-1.1h73.2c.2,0,.4.2.4.4,0,0,0,0,0,.1-10.2,38.8-40.8,66.9-79.6,75.7-14.2,3.2-29.4,4-45.4,2.3-36.2-3.9-68.2-23.1-85.4-55.3-5.8-10.9-9.8-22.2-11.9-33.8-4.2-23-3.4-45.3,2.5-66.7,3.4-12.3,8.9-24,16.6-34.9,16.6-23.5,42.6-38,71.1-42.6,18.4-3,36.4-2.5,53.8,1.4,26.3,5.9,49.5,20.6,64.6,43.1,10.1,15,15.7,31.4,18.1,49.5.4,3.3.7,5.8.7,7.4,0,5.7.8,9.6.3,15.7-.5,5.1.1,10.1-1.3,15.4,0,.3-.3.5-.7.5h-157.7c-.2,0-.4.2-.4.4,0,0,0,0,0,0ZM926.8-686.5c-.8-10.2-3.3-19.2-10.8-26.5-7.3-7.1-16-11-25.9-12-6.5-.6-11.8-.5-15.8.3-17.2,3.4-28.4,13.5-33.7,30.1-.9,2.9-1.6,5.6-2,7.9,0,.4.2.7.5.8,0,0,0,0,.1,0h87.1c.3,0,.5-.3.5-.6,0,0,0,0,0,0Z"/>
  <path class="st4" d="M543.2-667.3v2.2c-.1,0,0,113.2,0,113.2,0,.3-.3.6-.6.6h-74.5c-.2,0-.4-.2-.4-.4h0v-122.6c0-.2-.1-.3-.3-.3,0,0-.2,0-.2,0-23.4,22.3-50.9,37.4-82.4,45.5-.5.1-.9.6-.9,1.2v76c0,.3-.2.5-.5.5h-74.2c-.4,0-.7-.3-.7-.7h0v-122.5c0-.1-.1-.3-.3-.3,0,0-.1,0-.2,0-20.7,19.8-44.8,34-72.3,42.7-.2-.7-.2-1.3-.1-1.8,3.6-17.6,4-35.3,1.2-53-.3-1.8-.9-4.5-1.8-8.1-.7-2.8-1.3-5.5-1.7-8.2,39.3-13.5,72.6-38.3,97-71.6.3-.4.8-.6,1.3-.6h51.9c.3,0,.5.2.5.5v73.7c0,.3.3.6.6.6,0,0,.1,0,.2,0,2.6-.7,4.1-1.1,4.3-1.2,41.4-13.6,74.9-37.9,100.6-72.9.3-.4.7-.6,1.1-.6h52c.3,0,.6.3.6.6v107.4Z"/>
  <path class="st3" d="M387.5-442.8c2.4,9.6,4.4,18.1,4.8,26.6.2,5.5.8,10.5.5,16.3-.2,3.9-.4,7.8-.6,11.6-.1,2.7-1.1,8.2-3,16.7-6.5,26.1-20.1,46.8-40.6,62.3-17,12.8-37.5,20.3-58.7,22.6-41,4.5-83-7.2-109.7-39.9-9.2-11.3-15.9-23.9-20.1-37.7-2.8-9.3-4.5-18-5-26.2-.2-3.9-1-12-.5-17.4.5-5.2.3-9.8,1.2-15.4,1.4-8.5,2.8-14.9,4.2-19.4,14.8-46.2,53.5-74.5,101.2-78.5,10-.8,19.6-.7,28.8.3,42.4,4.7,78.3,28.8,94.3,68.9.5,1.2,1.6,4.3,3.3,9.1ZM226.1-404c0,8,.2,13.3,2,20.8,3.6,15.1,13.5,27.9,28,33.5,4.3,1.7,8.2,2.7,11.9,3,14,1.1,25.9-2.6,35.6-11,12.6-10.9,17.9-28,17.3-44.5,0-.4,0-.7,0-1.1,0-.4,0-.7,0-1.1.8-16.4-4.3-33.6-16.7-44.7-9.6-8.6-21.4-12.4-35.5-11.5-3.7.2-7.7,1.2-11.9,2.8-14.6,5.4-24.6,18-28.5,33.1-1.9,7.5-2.2,12.8-2.3,20.8Z"/>
  <path class="st3" d="M697.4-396.3v-15.5c.6-9.2,2-18.2,4.2-27.2,9.9-40.6,40-70.5,80.8-79.5,19.9-4.4,40-4.4,60.4,0,28.2,6.1,52.9,23.7,67.2,48.9,5.9,10.4,10.1,21.6,12.7,33.6,0,.3-.1.5-.4.6,0,0,0,0-.1,0h-73.2c-.6,0-1.2-.4-1.3-1-6.4-18.6-22.7-27.6-42-25-35,4.8-39.1,46.6-35.4,73.8,1.1,8.6,4.4,18.6,9.7,25.8,9.5,13,23.1,18,40.7,15.1,12.8-2.2,22.6-12.2,26.8-24.2.2-.6.8-1,1.4-1h73.3c.3,0,.5.2.5.5,0,0,0,0,0,.1-2.6,12.1-6.9,23.4-12.8,33.7-13.7,23.9-36.7,41.1-63.5,47.8-21.1,5.3-42.5,5.5-64.3.6-41.9-9.3-72-40.8-81-82.6-1.8-8.5-3-16.7-3.4-24.5Z"/>
  <path class="st3" d="M992.7-386.5c.8,19.7,11.9,37.4,31.7,42.2,11.5,2.8,25.5,1.7,35.3-4.9,5.3-3.6,9.5-8.5,12.4-14.8.3-.7,1-1.1,1.7-1.1h73.2c.2,0,.4.2.4.4,0,0,0,0,0,.1-10.2,38.8-40.8,66.9-79.6,75.7-14.2,3.2-29.4,4-45.5,2.3-36.2-3.9-68.2-23.1-85.4-55.4-5.8-10.9-9.8-22.2-11.9-33.8-4.2-23-3.3-45.3,2.5-66.7,3.4-12.3,8.9-24,16.6-34.9,16.6-23.5,42.6-38,71.1-42.6,18.4-2.9,36.4-2.5,53.8,1.5,26.3,5.9,49.5,20.6,64.6,43.1,10.1,15,15.7,31.4,18.1,49.5.4,3.3.7,5.8.7,7.4,0,5.7.8,9.6.3,15.7-.5,5.1.1,10.1-1.3,15.4,0,.3-.3.5-.7.5h-157.7c-.2,0-.4.1-.4.3,0,0,0,0,0,0ZM1081.2-426.4c-.8-10.1-3.3-19.2-10.8-26.5-7.3-7.1-16-11-25.9-12-6.5-.6-11.8-.5-15.8.3-17.1,3.4-28.4,13.4-33.7,30-.9,2.9-1.6,5.6-2,7.9,0,.4.2.7.5.8,0,0,0,0,.1,0h87.1c.3,0,.5-.2.5-.5,0,0,0,0,0,0Z"/>
  <path class="st4" d="M697.4-411.8v15.5s.1,104.2.1,104.2c0,.5-.4.9-.9.9,0,0,0,0,0,0h-73.9c-.3,0-.5-.2-.5-.5h0v-122.5c0-.2-.1-.3-.3-.3,0,0-.2,0-.2,0-23.6,22.4-51,37.5-82.4,45.6-.6.1-.9.6-.9,1.2v75.8c0,.4-.3.7-.7.7h-74.4c-.3,0-.5-.2-.5-.5h0v-122.3c0-.2-.2-.4-.3-.4,0,0-.2,0-.3.1-20.9,19.9-45.2,34.1-73,42.7,1.9-8.5,2.9-14.1,3-16.7.2-3.9.4-7.8.6-11.6.4-5.8-.2-10.8-.5-16.3-.4-8.4-2.4-17-4.8-26.6,40-14,72.4-38,97.2-72,.2-.3.6-.5,1-.5h52.1c.3,0,.6.3.6.6h0v73.7c0,.3.3.6.6.6,0,0,.1,0,.2,0,42.3-12.6,78.7-38.5,104.6-74,.4-.5,1-.9,1.7-.9h51.3c.4,0,.7.3.7.7s0,0,0,0l-.2,102.7Z"/>
  <g>
    <path class="st3" d="M233.3,78.8c.5,2.7,1,5.4,1.7,8.2.9,3.6,1.5,6.3,1.8,8.1,2.8,17.7,2.4,35.4-1.2,53-.1.5,0,1.1.1,1.8-.5-.1-.7,0-.8.2-3.4,14.4-9.6,27.6-18.4,39.7-26.3,36.1-71,50.2-114.2,45.4-37.4-4.2-69.8-23.5-88-56.7-6.1-11.2-10.1-22.6-11.9-34.2-.9-5.7-2-10.7-2-15.7,0-4.5-.8-9.3-.4-13.6.2-2.4.3-4.7.3-6.8,0-4.9,1.2-11.8,2-16.1,5.7-30.6,23.1-57.4,49.5-73.8,11.6-7.2,24.2-12.2,37.7-15.1,59.8-12.6,123.3,12.7,143,74.4.2.7.5,1.1.7,1.3ZM71.8,117.7c0,8,.2,13.3,2,20.8,3.6,15.1,13.5,27.9,28,33.5,4.3,1.7,8.2,2.6,11.9,2.9,14,1.1,25.9-2.6,35.6-11,12.6-10.9,17.9-28,17.3-44.5,0-.4,0-.7,0-1.1s0-.7,0-1.1c.8-16.4-4.3-33.6-16.7-44.7-9.6-8.6-21.4-12.4-35.5-11.5-3.7.3-7.7,1.2-11.9,2.8-14.6,5.5-24.6,18-28.5,33.1-1.9,7.5-2.2,12.8-2.3,20.8Z"/>
    <path class="st3" d="M543.1,116.8v-2.2c.3-3.5,0-7.3.5-10.7.3-1.5.4-2.4.4-2.5,1.6-16.9,6.2-32.3,13.8-46.1,15.7-28.5,42.6-46.9,74.5-52.8,12.4-2.3,24.9-2.9,37.5-1.9,13.4,1.1,25.5,3.9,36.5,8.4,25.7,10.7,45.4,30.9,55.8,57,2.4,6.1,4.5,12.7,6.2,19.7,0,.3-.1.5-.4.6,0,0,0,0-.1,0h-73.6c-.6,0-1-.4-1.2-.9-1.6-5.2-4.4-9.9-8.3-14.2-7.9-8.7-19.2-11.7-30.9-11-11.8.8-21.2,6-28.2,15.7-7.1,9.7-9.8,22-10.7,33.7-.3,3.5-.3,8.9,0,16.2.2,5.5,1.3,11.9,3.4,19.1,4,14.1,13.7,25.8,28.1,29.8,3.8,1.1,8.6,1.4,14.4,1.1,15.5-.8,27.1-10.3,32.3-25.1.2-.6.7-.9,1.3-.9h73.5c.3,0,.5.2.5.5,0,0,0,0,0,.1-2.2,9.4-5.2,17.9-8.7,25.6-13.7,29.4-39.6,49.9-71.2,56.8-21.7,4.7-43,4.4-63.9-.9-28.3-7.2-51.9-24.6-66.2-50.4-8.1-14.6-12.8-30.2-14.2-46.9,0-1.1-.2-2.2-.2-3.3-.2-4.8-.4-9.7-.6-14.5Z"/>
    <path class="st3" d="M838.4,135.2c.8,19.7,11.9,37.4,31.7,42.2,11.5,2.8,25.5,1.7,35.3-5,5.3-3.6,9.5-8.5,12.4-14.8.3-.7,1-1.1,1.7-1.1h73.2c.2,0,.4.2.4.4,0,0,0,0,0,.1-10.2,38.8-40.8,66.9-79.6,75.7-14.2,3.2-29.4,4-45.4,2.3-36.2-3.9-68.2-23.1-85.4-55.3-5.8-10.9-9.8-22.2-11.9-33.8-4.2-23-3.4-45.3,2.5-66.7,3.4-12.3,8.9-24,16.6-34.9,16.6-23.5,42.6-38,71.1-42.6,18.4-3,36.4-2.5,53.8,1.4,26.3,5.9,49.5,20.6,64.6,43.1,10.1,15,15.7,31.4,18.1,49.5.4,3.3.7,5.8.7,7.4,0,5.7.8,9.6.3,15.7-.5,5.1.1,10.1-1.3,15.4,0,.3-.3.5-.7.5h-157.7c-.2,0-.4.2-.4.4,0,0,0,0,0,0ZM926.9,95.3c-.8-10.2-3.3-19.2-10.8-26.5-7.3-7.1-16-11-25.9-12-6.5-.6-11.8-.5-15.8.3-17.2,3.4-28.4,13.5-33.7,30.1-.9,2.9-1.6,5.6-2,7.9,0,.4.2.7.5.8,0,0,0,0,.1,0h87.1c.3,0,.5-.3.5-.6,0,0,0,0,0,0Z"/>
    <path class="st4" d="M543.2,114.5v2.2c-.1,0,0,113.2,0,113.2,0,.3-.3.6-.6.6h-74.5c-.2,0-.4-.2-.4-.4h0v-122.6c0-.2-.1-.3-.3-.3,0,0-.2,0-.2,0-23.4,22.3-50.9,37.4-82.4,45.5-.5.1-.9.6-.9,1.2v76c0,.3-.2.5-.5.5h-74.2c-.4,0-.7-.3-.7-.7h0v-122.5c0-.1-.1-.3-.3-.3,0,0-.1,0-.2,0-20.7,19.8-44.8,34-72.3,42.7-.2-.7-.2-1.3-.1-1.8,3.6-17.6,4-35.3,1.2-53-.3-1.8-.9-4.5-1.8-8.1-.7-2.8-1.3-5.5-1.7-8.2,39.3-13.5,72.6-38.3,97-71.6.3-.4.8-.6,1.3-.6h51.9c.3,0,.5.2.5.5v73.7c0,.3.3.6.6.6,0,0,.1,0,.2,0,2.6-.7,4.1-1.1,4.3-1.2,41.4-13.6,74.9-37.9,100.6-72.9.3-.4.7-.6,1.1-.6h52c.3,0,.6.3.6.6v107.4Z"/>
    <path class="st3" d="M387.5,339.1c2.4,9.6,4.4,18.1,4.8,26.6.2,5.5.8,10.5.5,16.3-.2,3.9-.4,7.8-.6,11.6-.1,2.7-1.1,8.2-3,16.7-6.5,26.1-20.1,46.8-40.6,62.3-17,12.8-37.5,20.3-58.7,22.6-41,4.5-83-7.2-109.7-39.9-9.2-11.3-15.9-23.9-20.1-37.7-2.8-9.3-4.5-18-5-26.2-.2-3.9-1-12-.5-17.4.5-5.2.3-9.8,1.2-15.4,1.4-8.5,2.8-14.9,4.2-19.4,14.8-46.2,53.5-74.5,101.2-78.5,10-.8,19.6-.7,28.8.3,42.4,4.7,78.3,28.8,94.3,68.9.5,1.2,1.6,4.3,3.3,9.1ZM226.2,377.8c0,8,.2,13.3,2,20.8,3.6,15.1,13.5,27.9,28,33.5,4.3,1.7,8.2,2.7,11.9,3,14,1.1,25.9-2.6,35.6-11,12.6-10.9,17.9-28,17.3-44.5,0-.4,0-.7,0-1.1,0-.4,0-.7,0-1.1.8-16.4-4.3-33.6-16.7-44.7-9.6-8.6-21.4-12.4-35.5-11.5-3.7.2-7.7,1.2-11.9,2.8-14.6,5.4-24.6,18-28.5,33.1-1.9,7.5-2.2,12.8-2.3,20.8Z"/>
    <path class="st3" d="M697.4,385.5v-15.5c.6-9.2,2-18.2,4.2-27.2,9.9-40.6,40-70.5,80.8-79.5,19.9-4.4,40-4.4,60.4,0,28.2,6.1,52.9,23.7,67.2,48.9,5.9,10.4,10.1,21.6,12.7,33.6,0,.3-.1.5-.4.6,0,0,0,0-.1,0h-73.2c-.6,0-1.2-.4-1.3-1-6.4-18.6-22.7-27.6-42-25-35,4.8-39.1,46.6-35.4,73.8,1.1,8.6,4.4,18.6,9.7,25.8,9.5,13,23.1,18,40.7,15.1,12.8-2.2,22.6-12.2,26.8-24.2.2-.6.8-1,1.4-1h73.3c.3,0,.5.2.5.5,0,0,0,0,0,.1-2.6,12.1-6.9,23.4-12.8,33.7-13.7,23.9-36.7,41.1-63.5,47.8-21.1,5.3-42.5,5.5-64.3.6-41.9-9.3-72-40.8-81-82.6-1.8-8.5-3-16.7-3.4-24.5Z"/>
    <path class="st3" d="M992.8,395.3c.8,19.7,11.9,37.4,31.7,42.2,11.5,2.8,25.5,1.7,35.3-4.9,5.3-3.6,9.5-8.5,12.4-14.8.3-.7,1-1.1,1.7-1.1h73.2c.2,0,.4.2.4.4,0,0,0,0,0,.1-10.2,38.8-40.8,66.9-79.6,75.7-14.2,3.2-29.4,4-45.5,2.3-36.2-3.9-68.2-23.1-85.4-55.4-5.8-10.9-9.8-22.2-11.9-33.8-4.2-23-3.3-45.3,2.5-66.7,3.4-12.3,8.9-24,16.6-34.9,16.6-23.5,42.6-38,71.1-42.6,18.4-2.9,36.4-2.5,53.8,1.5,26.3,5.9,49.5,20.6,64.6,43.1,10.1,15,15.7,31.4,18.1,49.5.4,3.3.7,5.8.7,7.4,0,5.7.8,9.6.3,15.7-.5,5.1.1,10.1-1.3,15.4,0,.3-.3.5-.7.5h-157.7c-.2,0-.4.1-.4.3,0,0,0,0,0,0ZM1081.2,355.4c-.8-10.1-3.3-19.2-10.8-26.5-7.3-7.1-16-11-25.9-12-6.5-.6-11.8-.5-15.8.3-17.1,3.4-28.4,13.4-33.7,30-.9,2.9-1.6,5.6-2,7.9,0,.4.2.7.5.8,0,0,0,0,.1,0h87.1c.3,0,.5-.2.5-.5,0,0,0,0,0,0Z"/>
    <path class="st4" d="M697.4,370v15.5s.1,104.2.1,104.2c0,.5-.4.9-.9.9,0,0,0,0,0,0h-73.9c-.3,0-.5-.2-.5-.5h0v-122.5c0-.2-.1-.3-.3-.3,0,0-.2,0-.2,0-23.6,22.4-51,37.5-82.4,45.6-.6.1-.9.6-.9,1.2v75.8c0,.4-.3.7-.7.7h-74.4c-.3,0-.5-.2-.5-.5h0v-122.3c0-.2-.2-.4-.3-.4,0,0-.2,0-.3.1-20.9,19.9-45.2,34.1-73,42.7,1.9-8.5,2.9-14.1,3-16.7.2-3.9.4-7.8.6-11.6.4-5.8-.2-10.8-.5-16.3-.4-8.4-2.4-17-4.8-26.6,40-14,72.4-38,97.2-72,.2-.3.6-.5,1-.5h52.1c.3,0,.6.3.6.6h0v73.7c0,.3.3.6.6.6,0,0,.1,0,.2,0,42.3-12.6,78.7-38.5,104.6-74,.4-.5,1-.9,1.7-.9h51.3c.4,0,.7.3.7.7s0,0,0,0l-.2,102.7Z"/>
  </g>
</svg>